  <svg
                xmlns="http://www.w3.org/2000/svg"
                height="100px"
                viewBox="0 -40 480 480"
                width="100px"
              >
                <path d="m8 264h88v128h-88zm0 0" fill="#79bd9a"></path>
                <path
                  d="m56 200c-5.386719.007812-10.414062-2.695312-13.378906-7.191406s-3.46875-10.179688-1.339844-15.128906l8-17.679688h-17.28125l-24 56h80l-6.878906-16zm0 0"
                  fill="#cff09e"
                ></path>
                <path
                  d="m384 264v32h32v64h-32v32h88v-128zm0 0"
                  fill="#79bd9a"
                ></path>
                <path d="m464 216h-48l8 48h32zm0 0" fill="#cff09e"></path>
                <path d="m352 360h32v32h-32zm0 0" fill="#a8dba8"></path>
                <path
                  d="m128 168v-8h-32v136h288v-64h-192c-35.347656 0-64-28.652344-64-64zm0 0"
                  fill="#cff09e"
                ></path>
                <g fill="#a8dba8">
                  <path d="m96 360h32v32h-32zm0 0"></path>
                  <path
                    d="m128 248h224c17.671875 0 32 14.328125 32 32v16h-288v-16c0-17.671875 14.328125-32 32-32zm0 0"
                  ></path>
                  <path
                    d="m160 216h48c8.835938 0 16 7.164062 16 16v16h-80v-16c0-8.835938 7.164062-16 16-16zm0 0"
                  ></path>
                  <path
                    d="m272 216h48c8.835938 0 16 7.164062 16 16v16h-80v-16c0-8.835938 7.164062-16 16-16zm0 0"
                  ></path>
                </g>
                <path
                  d="m96 296h-32v64h352v-24h-280c-22.089844 0-40-17.910156-40-40zm0 0"
                  fill="#cff09e"
                ></path>
                <path
                  d="m288 56c0 26.507812-21.492188 48-48 48s-48-21.492188-48-48 21.492188-48 48-48 48 21.492188 48 48zm0 0"
                  fill="#cff09e"
                ></path>
                <path
                  d="m264 56c0 13.253906-10.746094 24-24 24s-24-10.746094-24-24 10.746094-24 24-24 24 10.746094 24 24zm0 0"
                  fill="#a8dba8"
                ></path>
                <path
                  d="m240 112c30.929688 0 56-25.070312 56-56s-25.070312-56-56-56-56 25.070312-56 56 25.070312 56 56 56zm0-96c22.089844 0 40 17.910156 40 40s-17.910156 40-40 40-40-17.910156-40-40 17.910156-40 40-40zm0 0"
                  fill="#3b8686"
                ></path>
                <path
                  d="m240 64h16c4.417969 0 8-3.582031 8-8s-3.582031-8-8-8h-8v-8c0-4.417969-3.582031-8-8-8s-8 3.582031-8 8v16c0 4.417969 3.582031 8 8 8zm0 0"
                  fill="#3b8686"
                ></path>
                <path
                  d="m472 256h-6.558594l6.558594-38.71875c.378906-2.335938-.292969-4.714844-1.835938-6.503906-1.542968-1.792969-3.800781-2.808594-6.164062-2.777344h-48c-2.363281-.03125-4.621094.984375-6.164062 2.777344-1.542969 1.789062-2.214844 4.167968-1.835938 6.503906l6.558594 38.71875h-22.558594v-96c0-4.417969-3.582031-8-8-8h-288c-4.417969 0-8 3.582031-8 8v35.679688l-16.640625-38.800782c-1.25-2.953125-4.148437-4.875-7.359375-4.878906h-32c-3.210938.003906-6.109375 1.925781-7.359375 4.878906l-24 56c-1.046875 2.46875-.785156 5.300782.695313 7.535156 1.480468 2.238282 3.980468 3.582032 6.664062 3.585938h32v32h-32c-4.417969 0-8 3.582031-8 8v128c0 4.417969 3.582031 8 8 8h120c4.417969 0 8-3.582031 8-8v-24h208v24c0 4.417969 3.582031 8 8 8h120c4.417969 0 8-3.582031 8-8v-128c0-4.417969-3.582031-8-8-8zm-46.558594-32h29.117188l-5.359375 32h-18.398438zm-33.441406 48h72v48h-40v-16h16c4.417969 0 8-3.582031 8-8s-3.582031-8-8-8h-48zm-320 80v-48h336v48zm144-112h-64v-8c0-4.417969 3.582031-8 8-8h48c4.417969 0 8 3.582031 8 8zm136 16c13.253906 0 24 10.746094 24 24v8h-272v-8c0-13.253906 10.746094-24 24-24zm-24-16h-64v-8c0-4.417969 3.582031-8 8-8h48c4.417969 0 8 3.582031 8 8zm48-72v80c-6.902344-5.234375-15.335938-8.046875-24-8h-8v-8c0-13.253906-10.746094-24-24-24h-48c-13.253906 0-24 10.746094-24 24v8h-16v-8c0-13.253906-10.746094-24-24-24h-48c-13.253906 0-24 10.746094-24 24v8h-8c-8.664062-.046875-17.097656 2.765625-24 8v-80zm-338.71875 0h21.4375l17.121094 40h-56zm18.71875 56h32v32h-32zm32 48v16h-48c-4.417969 0-8 3.582031-8 8s3.582031 8 8 8h16v16h-40v-48zm-72 64h40v24c0 4.417969 3.582031 8 8 8h24v16h-72zm104 48h-16v-16h16zm240-16h16v16h-16zm32 16v-16h24c4.417969 0 8-3.582031 8-8v-24h40v48zm0 0"
                  fill="#3b8686"
                ></path>
              </svg>