<svg
                xmlns="http://www.w3.org/2000/svg"
                height="100px"
                viewBox="0 0 64 64"
                width="100px"
              >
                <g id="Twotone">
                  <g id="Stroke_copy_3" data-name="Stroke copy 3">
                    <g>
                      <path
                        d="m59 27h-6v-4h6a2 2 0 0 1 2 2 2 2 0 0 1 -2 2z"
                        fill="#79bd9a"
                      ></path>
                      <path
                        d="m6 35v26h26v-26zm21 22h-16v-10h16z"
                        fill="#a8dba8"
                      ></path>
                      <path
                        d="m32 35v26h26v-26zm13 22a9 9 0 1 1 9-9 9 9 0 0 1 -9 9z"
                        fill="#a8dba8"
                      ></path>
                      <g fill="#79bd9a">
                        <path d="m3 31h58v4h-58z"></path>
                        <circle cx="18" cy="41" r="2"></circle>
                        <circle cx="26" cy="41" r="2"></circle>
                      </g>
                      <path d="m11 47v10h16l-10-10z" fill="#cff09e"></path>
                      <path
                        d="m9 13h18a2 2 0 0 1 2 2v2a0 0 0 0 1 0 0h-22a0 0 0 0 1 0 0v-2a2 2 0 0 1 2-2z"
                        fill="#79bd9a"
                      ></path>
                      <path
                        d="m18 9a2 2 0 0 1 2 2v2a0 0 0 0 1 0 0h-4a0 0 0 0 1 0 0v-2a2 2 0 0 1 2-2z"
                        fill="#79bd9a"
                      ></path>
                      <path
                        d="m50 52a8.99 8.99 0 0 1 -8.349-12.349 9 9 0 1 0 11.7 11.7 8.963 8.963 0 0 1 -3.351.649z"
                        fill="#cff09e"
                      ></path>
                      <path
                        d="m52 28h-10a4 4 0 0 1 -4-4v-1h-3v4a4 4 0 0 0 4 4h10a4 4 0 0 0 3.892-3.108 3.974 3.974 0 0 1 -.892.108z"
                        fill="#cff09e"
                      ></path>
                      <path
                        d="m26 28h-4a8 8 0 0 1 -8-8v-1h13v-2h-18v8a6 6 0 0 0 6 6h6a5.994 5.994 0 0 0 5.2-3.01c-.069.002-.134.01-.2.01z"
                        fill="#cff09e"
                      ></path>
                    </g>
                  </g>
                  <g id="Stroke_Close_copy" data-name="Stroke Close copy">
                    <g fill="#3b8686">
                      <path
                        d="m61 30h-8.026a4.954 4.954 0 0 0 .925-2h5.101a3 3 0 0 0 0-6h-24a1 1 0 0 0 -1 1v4a4.948 4.948 0 0 0 1.026 3h-9.137a6.973 6.973 0 0 0 2.111-5v-7h1a1 1 0 0 0 1-1v-2a3 3 0 0 0 -3-3h-6v-1a3 3 0 0 0 -6 0v1h-6a3 3 0 0 0 -3 3v2a1 1 0 0 0 1 1h1v7a6.973 6.973 0 0 0 2.111 5h-7.111a1 1 0 0 0 -1 1v4a1 1 0 0 0 1 1h2v25a1 1 0 0 0 1 1h52a1 1 0 0 0 1-1v-25h2a1 1 0 0 0 1-1v-4a1 1 0 0 0 -1-1zm-7-6h2v2h-2zm6 1a1 1 0 0 1 -1 1h-1v-2h1a1 1 0 0 1 1 1zm-24 2v-3h16v3a3 3 0 0 1 -3 3h-10a3 3 0 0 1 -3-3zm-19-16a1 1 0 0 1 2 0v1h-2zm-9 4a1 1 0 0 1 1-1h18a1 1 0 0 1 1 1v1h-20zm2 10v-7h16v7a5.006 5.006 0 0 1 -5 5h-6a5.006 5.006 0 0 1 -5-5zm-3 11h24v24h-24zm50 24h-24v-24h24zm3-26h-56v-2h56z"
                      ></path>
                      <path
                        d="m45 58a10 10 0 1 0 -10-10 10.011 10.011 0 0 0 10 10zm0-18a8 8 0 1 1 -8 8 8.009 8.009 0 0 1 8-8z"
                      ></path>
                      <path
                        d="m42.172 48.172a1 1 0 0 0 1.414 1.414 2.047 2.047 0 0 1 2.828 0 1 1 0 0 0 1.414-1.414 4.093 4.093 0 0 0 -5.656 0z"
                      ></path>
                      <path
                        d="m40.757 46.757a6.007 6.007 0 0 1 8.486 0 1 1 0 0 0 1.414-1.414 8.01 8.01 0 0 0 -11.314 0 1 1 0 0 0 1.414 1.414z"
                      ></path>
                      <circle cx="45" cy="52" r="1"></circle>
                      <path
                        d="m18 44a3 3 0 1 0 -3-3 3 3 0 0 0 3 3zm0-4a1 1 0 1 1 -1 1 1 1 0 0 1 1-1z"
                      ></path>
                      <path
                        d="m26 38a3 3 0 1 0 3 3 3 3 0 0 0 -3-3zm0 4a1 1 0 1 1 1-1 1 1 0 0 1 -1 1z"
                      ></path>
                      <circle cx="11" cy="41" r="1"></circle>
                      <path
                        d="m27 46h-16a1 1 0 0 0 -1 1v10a1 1 0 0 0 1 1h16a1.01 1.01 0 0 0 .382-.077 1 1 0 0 0 .541-.541 1.01 1.01 0 0 0 .077-.382v-10a1 1 0 0 0 -1-1zm-1 8.586-6.586-6.586h6.586zm-14-6.586h4.655a.97.97 0 0 0 .138.207l7.793 7.793h-4.172l-4.207-4.207a1 1 0 0 0 -1.414 1.414l2.793 2.793h-5.586z"
                      ></path>
                      <path
                        d="m39.292 17.293a1 1 0 0 0 1.416 1.414 2.419 2.419 0 0 0 0-3.414.414.414 0 0 1 0-.586 1 1 0 0 0 -1.416-1.414 2.419 2.419 0 0 0 0 3.414.414.414 0 0 1 0 .586z"
                      ></path>
                      <path
                        d="m43.292 17.293a1 1 0 0 0 1.416 1.414 2.419 2.419 0 0 0 0-3.414.414.414 0 0 1 0-.586 1 1 0 0 0 -1.416-1.414 2.419 2.419 0 0 0 0 3.414.414.414 0 0 1 0 .586z"
                      ></path>
                      <path
                        d="m47.292 17.293a1 1 0 0 0 1.416 1.414 2.419 2.419 0 0 0 0-3.414.414.414 0 0 1 0-.586 1 1 0 0 0 -1.416-1.414 2.419 2.419 0 0 0 0 3.414.414.414 0 0 1 0 .586z"
                      ></path>
                      <path
                        d="m22.292 6.293a1 1 0 0 0 1.416 1.414 2.419 2.419 0 0 0 0-3.414.414.414 0 0 1 0-.586 1 1 0 0 0 -1.416-1.414 2.419 2.419 0 0 0 0 3.414.414.414 0 0 1 0 .586z"
                      ></path>
                      <path
                        d="m26.292 6.293a1 1 0 0 0 1.416 1.414 2.419 2.419 0 0 0 0-3.414.414.414 0 0 1 0-.586 1 1 0 0 0 -1.416-1.414 2.419 2.419 0 0 0 0 3.414.414.414 0 0 1 0 .586z"
                      ></path>
                      <path
                        d="m8.292 6.293a1 1 0 0 0 1.416 1.414 2.419 2.419 0 0 0 0-3.414.414.414 0 0 1 0-.586 1 1 0 0 0 -1.416-1.414 2.419 2.419 0 0 0 0 3.414.414.414 0 0 1 0 .586z"
                      ></path>
                      <path
                        d="m12.292 6.293a1 1 0 0 0 1.416 1.414 2.419 2.419 0 0 0 0-3.414.414.414 0 0 1 0-.586 1 1 0 0 0 -1.416-1.414 2.419 2.419 0 0 0 0 3.414.414.414 0 0 1 0 .586z"
                      ></path>
                    </g>
                  </g>
                </g>
              </svg>