<svg
                xmlns="http://www.w3.org/2000/svg"
                height="100px"
                viewBox="0 0 64 64"
                width="100px"
              >
                <g id="Twotone">
                  <g id="Color_copy" data-name="Color copy">
                    <circle cx="47" cy="22" fill="#a8dba8" r="2"></circle>
                    <circle cx="56" cy="18" fill="#a8dba8" r="3"></circle>
                    <g fill="#cff09e">
                      <path
                        d="m61 40a2.015 2.015 0 0 1 -2 2h-54a2.006 2.006 0 0 1 -2-2 2.015 2.015 0 0 1 2-2h1a2.006 2.006 0 0 0 2 2z"
                      ></path>
                      <path
                        d="m10.26 45 .31 1.95a9.227 9.227 0 0 0 12.21 7.27l1.97-.69a9.192 9.192 0 0 1 3.08-.53h15.93a6.723 6.723 0 0 1 4.04 1.35l.4.3a6.723 6.723 0 0 0 4.04 1.35h.01a6.66 6.66 0 0 0 3.72-1.13l-.07.45a6.737 6.737 0 0 1 -6.65 5.68h-.01a6.723 6.723 0 0 1 -4.04-1.35l-.4-.3a6.723 6.723 0 0 0 -4.04-1.35h-17.52a6.723 6.723 0 0 0 -4.04 1.35l-.4.3a6.723 6.723 0 0 1 -4.04 1.35h-.01a6.737 6.737 0 0 1 -6.65-5.68l-2.1-13.32h52z"
                      ></path>
                      <path
                        d="m33 17h-16a5.944 5.944 0 0 1 1.76-4.24 6 6 0 0 1 1.59-1.14 3.993 3.993 0 0 0 3.65 2.38h8.19a5.857 5.857 0 0 1 .81 3z"
                      ></path>
                      <path
                        d="m27 11h-4a4 4 0 0 0 -4-4h-2a4 4 0 0 0 -4 4v1.18a2.968 2.968 0 0 0 -2 2.82v17a2.968 2.968 0 0 0 2 2.82v3.18h-4v-27a7.993 7.993 0 0 1 7.49-7.98 7.963 7.963 0 0 1 6.46 4.04 3.932 3.932 0 0 0 3.43 1.94h.37a8.239 8.239 0 0 1 .25 2z"
                      ></path>
                    </g>
                    <path
                      d="m59 38a3.974 3.974 0 0 0 -1.078-2.715 2.987 2.987 0 0 0 -1.922-5.285 3 3 0 1 0 -5.792 1.08 4 4 0 0 0 -3.128 3.128 2.945 2.945 0 0 0 -3.365.87 3.958 3.958 0 0 0 -4.879-.434 2.966 2.966 0 0 0 -1.836-.644 3 3 0 0 0 -3 3 2.962 2.962 0 0 0 .184 1z"
                      fill="#a8dba8"
                    ></path>
                  </g>
                  <g
                    id="Stroke_Close_copy"
                    fill="#3b8686"
                    data-name="Stroke Close copy"
                  >
                    <path
                      d="m59.92 37.159a4.905 4.905 0 0 0 -.691-1.81 3.96 3.96 0 0 0 .771-2.349 4.007 4.007 0 0 0 -3.1-3.9 4 4 0 0 0 -7.876 1.307 4.989 4.989 0 0 0 -2.613 2.613 3.955 3.955 0 0 0 -2.758.749 5.025 5.025 0 0 0 -4.773-.293 3.944 3.944 0 0 0 -1.88-.476 4 4 0 0 0 -4 4h-19v-26a3 3 0 0 1 3-3h2a2.994 2.994 0 0 1 2.848 2.1 7 7 0 0 0 -5.848 6.9 1 1 0 0 0 1 1h16a1 1 0 0 0 1-1 7 7 0 0 0 -6.048-6.927 9.013 9.013 0 0 0 -8.952-8.073h-2a9.011 9.011 0 0 0 -9 9v26h-3a3 3 0 0 0 0 6h.146l1.969 12.471a7.7 7.7 0 0 0 7.64 6.529 7.78 7.78 0 0 0 4.645-1.547l.408-.306a5.768 5.768 0 0 1 3.437-1.147h17.51a5.768 5.768 0 0 1 3.445 1.147l.408.306a7.78 7.78 0 0 0 4.637 1.547 7.7 7.7 0 0 0 7.64-6.529l1.969-12.471h.146a2.992 2.992 0 0 0 .92-5.841zm-22.92-2.159a2.035 2.035 0 0 1 1.232.434 1 1 0 0 0 1.15.046 3.007 3.007 0 0 1 3.641.328 1 1 0 0 0 1.456-.088 1.915 1.915 0 0 1 2.244-.576 1 1 0 0 0 1.337-.736 3 3 0 0 1 2.348-2.348 1 1 0 0 0 .736-1.337 2 2 0 1 1 3.856-.723 1 1 0 0 0 1 1 2 2 0 0 1 2 2 1.974 1.974 0 0 1 -.72 1.521 1 1 0 0 0 -.088 1.456 2.939 2.939 0 0 1 .625 1.023h-22.817a2 2 0 0 1 2-2zm-5.1-19h-13.8a5.008 5.008 0 0 1 4.9-4h4a5.008 5.008 0 0 1 4.9 4zm-21.9-5a7.008 7.008 0 0 1 7-7h2a7.011 7.011 0 0 1 6.929 6h-2.029a5.008 5.008 0 0 0 -4.9-4h-2a5.006 5.006 0 0 0 -5 5v26h-2zm44.91 44.16a5.708 5.708 0 0 1 -5.665 4.84 5.768 5.768 0 0 1 -3.445-1.147l-.408-.306a7.78 7.78 0 0 0 -4.637-1.547h-17.51a7.78 7.78 0 0 0 -4.645 1.547l-.408.306a5.768 5.768 0 0 1 -3.437 1.147 5.708 5.708 0 0 1 -5.665-4.84l-1.92-12.16h49.66zm4.09-14.16h-54a1 1 0 0 1 0-2h54a1 1 0 0 1 0 2z"
                    ></path>
                    <path d="m20 21a1 1 0 0 0 -2 0v1a1 1 0 0 0 2 0z"></path>
                    <path d="m24 21a1 1 0 0 0 -2 0v1a1 1 0 0 0 2 0z"></path>
                    <path d="m28 21a1 1 0 0 0 -2 0v1a1 1 0 0 0 2 0z"></path>
                    <path d="m32 21a1 1 0 0 0 -2 0v1a1 1 0 0 0 2 0z"></path>
                    <path d="m20 26a1 1 0 0 0 -2 0v1a1 1 0 0 0 2 0z"></path>
                    <path d="m24 26a1 1 0 0 0 -2 0v1a1 1 0 0 0 2 0z"></path>
                    <path d="m28 26a1 1 0 0 0 -2 0v1a1 1 0 0 0 2 0z"></path>
                    <path d="m32 26a1 1 0 0 0 -2 0v1a1 1 0 0 0 2 0z"></path>
                    <path
                      d="m19 30a1 1 0 0 0 -1 1v1a1 1 0 0 0 2 0v-1a1 1 0 0 0 -1-1z"
                    ></path>
                    <path
                      d="m23 30a1 1 0 0 0 -1 1v1a1 1 0 0 0 2 0v-1a1 1 0 0 0 -1-1z"
                    ></path>
                    <path
                      d="m27 30a1 1 0 0 0 -1 1v1a1 1 0 0 0 2 0v-1a1 1 0 0 0 -1-1z"
                    ></path>
                    <path
                      d="m31 30a1 1 0 0 0 -1 1v1a1 1 0 0 0 2 0v-1a1 1 0 0 0 -1-1z"
                    ></path>
                    <path
                      d="m47 25a3 3 0 1 0 -3-3 3 3 0 0 0 3 3zm0-4a1 1 0 1 1 -1 1 1 1 0 0 1 1-1z"
                    ></path>
                    <path
                      d="m56 22a4 4 0 1 0 -4-4 4 4 0 0 0 4 4zm0-6a2 2 0 1 1 -2 2 2 2 0 0 1 2-2z"
                    ></path>
                  </g>
                </g>
              </svg>