 <svg
                xmlns="http://www.w3.org/2000/svg"
                height="100px"
                viewBox="-8 0 480 480"
                width="100px"
              >
                <path
                  d="m264 56h32v-16c0-17.671875-14.328125-32-32-32h-224c-17.671875 0-32 14.328125-32 32v400c0 17.671875 14.328125 32 32 32h224c17.671875 0 32-14.328125 32-32v-64h-32c-17.671875 0-32-14.328125-32-32v-256c0-17.671875 14.328125-32 32-32zm-168 88c0 4.417969-3.582031 8-8 8h-32c-4.417969 0-8-3.582031-8-8v-32c0-4.417969 3.582031-8 8-8h32c4.417969 0 8 3.582031 8 8zm96 96c0 4.417969-3.582031 8-8 8h-32c-4.417969 0-8-3.582031-8-8v-32c0-4.417969 3.582031-8 8-8h32c4.417969 0 8 3.582031 8 8zm0 0"
                  fill="#a8dba8"
                ></path>
                <path
                  d="m8 408h288v32c0 17.671875-14.328125 32-32 32h-224c-17.671875 0-32-14.328125-32-32zm0 0"
                  fill="#79bd9a"
                ></path>
                <path
                  d="m56 200h32c4.417969 0 8 3.582031 8 8v32c0 4.417969-3.582031 8-8 8h-32c-4.417969 0-8-3.582031-8-8v-32c0-4.417969 3.582031-8 8-8zm0 0"
                  fill="#79bd9a"
                ></path>
                <path
                  d="m56 296h32c4.417969 0 8 3.582031 8 8v32c0 4.417969-3.582031 8-8 8h-32c-4.417969 0-8-3.582031-8-8v-32c0-4.417969 3.582031-8 8-8zm0 0"
                  fill="#79bd9a"
                ></path>
                <path
                  d="m152 104h32c4.417969 0 8 3.582031 8 8v32c0 4.417969-3.582031 8-8 8h-32c-4.417969 0-8-3.582031-8-8v-32c0-4.417969 3.582031-8 8-8zm0 0"
                  fill="#cff09e"
                ></path>
                <path
                  d="m152 296h32c4.417969 0 8 3.582031 8 8v32c0 4.417969-3.582031 8-8 8h-32c-4.417969 0-8-3.582031-8-8v-32c0-4.417969 3.582031-8 8-8zm0 0"
                  fill="#cff09e"
                ></path>
                <path
                  d="m264 352c-4.417969 0-8-3.582031-8-8v-286.871094c-14.101562 3.613282-23.972656 16.3125-24 30.871094v256c0 17.671875 14.328125 32 32 32h160c14.558594-.027344 27.253906-9.898438 30.871094-24zm0 0"
                  fill="#cff09e"
                ></path>
                <path
                  d="m416 440-24-24-24 24v-64h48zm0 0"
                  fill="#a8dba8"
                ></path>
                <path
                  d="m376 24h32c4.417969 0 8 3.582031 8 8v24h-48v-24c0-4.417969 3.582031-8 8-8zm0 0"
                  fill="#a8dba8"
                ></path>
                <g fill="#3b8686">
                  <path
                    d="m192 432h-80c-4.417969 0-8 3.582031-8 8s3.582031 8 8 8h80c4.417969 0 8-3.582031 8-8s-3.582031-8-8-8zm0 0"
                  ></path>
                  <path
                    d="m64 40c0 4.417969-3.582031 8-8 8s-8-3.582031-8-8 3.582031-8 8-8 8 3.582031 8 8zm0 0"
                  ></path>
                  <path
                    d="m96 40c0 4.417969-3.582031 8-8 8s-8-3.582031-8-8 3.582031-8 8-8 8 3.582031 8 8zm0 0"
                  ></path>
                  <path
                    d="m88 96h-32c-8.835938 0-16 7.164062-16 16v32c0 8.835938 7.164062 16 16 16h32c8.835938 0 16-7.164062 16-16v-32c0-8.835938-7.164062-16-16-16zm-32 48v-32h32v32zm0 0"
                  ></path>
                  <path
                    d="m88 192h-32c-8.835938 0-16 7.164062-16 16v32c0 8.835938 7.164062 16 16 16h32c8.835938 0 16-7.164062 16-16v-32c0-8.835938-7.164062-16-16-16zm-32 48v-32h32v32zm0 0"
                  ></path>
                  <path
                    d="m88 288h-32c-8.835938 0-16 7.164062-16 16v32c0 8.835938 7.164062 16 16 16h32c8.835938 0 16-7.164062 16-16v-32c0-8.835938-7.164062-16-16-16zm-32 48v-32h32v32zm0 0"
                  ></path>
                  <path
                    d="m184 96h-32c-8.835938 0-16 7.164062-16 16v32c0 8.835938 7.164062 16 16 16h32c8.835938 0 16-7.164062 16-16v-32c0-8.835938-7.164062-16-16-16zm-32 48v-32h32v32zm0 0"
                  ></path>
                  <path
                    d="m184 192h-32c-8.835938 0-16 7.164062-16 16v32c0 8.835938 7.164062 16 16 16h32c8.835938 0 16-7.164062 16-16v-32c0-8.835938-7.164062-16-16-16zm-32 48v-32h32v32zm0 0"
                  ></path>
                  <path
                    d="m184 288h-32c-8.835938 0-16 7.164062-16 16v32c0 8.835938 7.164062 16 16 16h32c8.835938 0 16-7.164062 16-16v-32c0-8.835938-7.164062-16-16-16zm-32 48v-32h32v32zm0 0"
                  ></path>
                  <path
                    d="m424 48v-16c0-8.835938-7.164062-16-16-16h-32c-8.835938 0-16 7.164062-16 16v16h-56v-8c-.027344-22.082031-17.917969-39.9726562-40-40h-224c-22.082031.0273438-39.9726562 17.917969-40 40v400c.0273438 22.082031 17.917969 39.972656 40 40h224c22.082031-.027344 39.972656-17.917969 40-40v-56h56v56c0 3.234375 1.949219 6.152344 4.9375 7.390625s6.429688.550781 8.71875-1.734375l18.34375-18.34375 18.34375 18.34375c1.5 1.5 3.535156 2.34375 5.65625 2.34375 1.050781.003906 2.09375-.203125 3.0625-.609375 2.988281-1.238281 4.9375-4.15625 4.9375-7.390625v-56c22.082031-.027344 39.972656-17.917969 40-40v-256c-.027344-22.082031-17.917969-39.972656-40-40zm-48-16h32v16h-32zm-112 432h-224c-13.253906 0-24-10.746094-24-24v-24h272v24c0 13.253906-10.746094 24-24 24zm24-64h-272v-360c0-13.253906 10.746094-24 24-24h224c13.253906 0 24 10.746094 24 24v8h-24c-22.082031.027344-39.972656 17.917969-40 40v256c.027344 22.082031 17.917969 39.972656 40 40h24zm120 20.6875-10.34375-10.34375c-3.125-3.121094-8.1875-3.121094-11.3125 0l-10.34375 10.34375v-36.6875h32zm40-76.6875c0 13.253906-10.746094 24-24 24h-160c-13.253906 0-24-10.746094-24-24v-256c0-13.253906 10.746094-24 24-24h160c13.253906 0 24 10.746094 24 24zm0 0"
                  ></path>
                  <path
                    d="m296 120h64c4.417969 0 8-3.582031 8-8s-3.582031-8-8-8h-64c-4.417969 0-8 3.582031-8 8s3.582031 8 8 8zm0 0"
                  ></path>
                  <path
                    d="m264 160h120c4.417969 0 8-3.582031 8-8s-3.582031-8-8-8h-120c-4.417969 0-8 3.582031-8 8s3.582031 8 8 8zm0 0"
                  ></path>
                  <path
                    d="m264 208h112c4.417969 0 8-3.582031 8-8s-3.582031-8-8-8h-112c-4.417969 0-8 3.582031-8 8s3.582031 8 8 8zm0 0"
                  ></path>
                  <path
                    d="m408 240h-136c-4.417969 0-8 3.582031-8 8s3.582031 8 8 8h136c4.417969 0 8-3.582031 8-8s-3.582031-8-8-8zm0 0"
                  ></path>
                  <path
                    d="m400 280h-80c-4.417969 0-8 3.582031-8 8s3.582031 8 8 8h80c4.417969 0 8-3.582031 8-8s-3.582031-8-8-8zm0 0"
                  ></path>
                  <path
                    d="m400 320h-136c-4.417969 0-8 3.582031-8 8s3.582031 8 8 8h136c4.417969 0 8-3.582031 8-8s-3.582031-8-8-8zm0 0"
                  ></path>
                </g>
              </svg>