   <svg
                xmlns="http://www.w3.org/2000/svg"
                id="Twotone"
                height="100px"
                viewBox="0 0 64 64"
                width="100px"
              >
                <g id="Color_copy_2">
                  <g>
                    <g>
                      <g>
                        <path
                          d="m49.665 47.759c.69-1.196.281-2.725-.915-3.415l-22.43-12.95c-.889-.514-1.942-.665-2.941-.424l-1.611.39c-1.733.419-3.546.373-5.256-.133l-7.512-2.227-4 15 9.934 3.915 20.352 11.75c1.196.69 2.725.281 3.415-.915s.281-2.725-.915-3.415l.866.5c1.196.69 2.725.281 3.415-.915s.281-2.725-.915-3.415l.866.5c1.196.69 2.725.281 3.415-.915s.281-2.725-.915-3.415l1.732 1c1.195.69 2.724.28 3.415-.916z"
                          fill="#fff"
                        ></path>
                        <g fill="#cff09e">
                          <path
                            d="m49.793 45.536c-.693 1.188-2.216 1.595-3.409.907l-7.361-4.25c-.957-.552-2.18-.225-2.732.732l9.959 5.75c1.196.69 2.725.281 3.415-.915.408-.707.423-1.527.128-2.224z"
                          ></path>
                          <path
                            d="m45.56 48.866c-.693 1.188-2.216 1.595-3.409.907l-5.629-3.25c-.957-.552-2.18-.225-2.732.732l8.227 4.75c1.196.69 2.725.281 3.415-.915.408-.707.424-1.527.128-2.224z"
                          ></path>
                          <path
                            d="m42.194 52.696c-.693 1.188-2.216 1.595-3.409.907l-4.763-2.75c-.957-.552-2.18-.225-2.732.732l7.361 4.25c1.196.69 2.725.281 3.415-.915.408-.707.424-1.527.128-2.224z"
                          ></path>
                          <path
                            d="m38.828 56.526c-.693 1.188-2.216 1.595-3.409.907l-6.495-3.75c-6.696-3.866-8.99-12.428-5.124-19.124l1.971-3.414c-.759-.296-1.591-.367-2.392-.174l-1.611.39c-1.733.419-3.546.373-5.256-.133l-7.512-2.228-4 15 9.934 3.915 20.352 11.75c1.196.69 2.725.281 3.415-.915.407-.707.423-1.527.127-2.224z"
                          ></path>
                          <path
                            d="m30.036 33.54-1.128.966c-1.921 1.647-4.143 2.905-6.544 3.705-1.029.343-1.555 1.417-1.294 2.405-.127.495-.078 1.038.212 1.521.954 1.59 3.005 2.126 4.615 1.206l4.103-2.343.832.333c1.426.57 2.954.748 4.435.548 1.304-.177 2.4-.946 3.035-2.016.163-.09.33-.17.489-.271l8.119 4.687c.805.465 1.703.719 2.62.777-.201-.282-.46-.529-.779-.714z"
                          ></path>
                        </g>
                        <path d="m3 25 10 3-5 20-5-1z" fill="#a8dba8"></path>
                      </g>
                      <g>
                        <g fill="#fff">
                          <path
                            d="m14.505 54.031c-1.196-.69-1.605-2.219-.915-3.415l1.5-2.598c.69-1.196 2.219-1.605 3.415-.915 1.196.69 1.605 2.219.915 3.415l-1.5 2.598c-.69 1.195-2.219 1.605-3.415.915z"
                          ></path>
                          <path
                            d="m18.335 57.397c-1.196-.69-1.605-2.219-.915-3.415l2.5-4.33c.69-1.196 2.219-1.605 3.415-.915 1.196.69 1.605 2.219.915 3.415l-2.5 4.33c-.69 1.195-2.219 1.605-3.415.915z"
                          ></path>
                          <path
                            d="m23.165 59.031c-1.196-.69-1.605-2.219-.915-3.415l1.5-2.598c.69-1.196 2.219-1.605 3.415-.915 1.196.69 1.605 2.219.915 3.415l-1.5 2.598c-.69 1.195-2.219 1.605-3.415.915z"
                          ></path>
                          <path
                            d="m27.995 60.665c-1.196-.69-1.605-2.219-.915-3.415l.5-.866c.69-1.196 2.219-1.605 3.415-.915 1.196.69 1.605 2.219.915 3.415l-.5.866c-.69 1.195-2.219 1.605-3.415.915z"
                          ></path>
                        </g>
                        <path
                          d="m18.744 47.275c-.001.423-.098.85-.324 1.243l-1.5 2.598c-.69 1.196-2.219 1.605-3.415.915-.087-.05-.161-.114-.239-.172-.002.866.436 1.709 1.239 2.172 1.196.69 2.725.281 3.415-.915l1.5-2.598c.64-1.109.325-2.496-.676-3.243z"
                          fill="#cff09e"
                        ></path>
                        <path
                          d="m23.574 48.909c-.001.423-.098.85-.324 1.243l-2.5 4.33c-.69 1.196-2.219 1.605-3.415.915-.087-.05-.161-.114-.239-.172-.002.866.436 1.709 1.239 2.172 1.196.69 2.725.281 3.415-.915l2.5-4.33c.64-1.109.325-2.496-.676-3.243z"
                          fill="#cff09e"
                        ></path>
                        <path
                          d="m27.404 52.275c-.001.423-.098.85-.324 1.243l-1.5 2.598c-.69 1.196-2.219 1.605-3.415.915-.087-.05-.161-.114-.239-.172-.002.866.436 1.708 1.239 2.172 1.196.69 2.725.281 3.415-.915l1.5-2.598c.64-1.109.325-2.496-.676-3.243z"
                          fill="#cff09e"
                        ></path>
                        <path
                          d="m31.235 55.641c-.001.423-.098.85-.324 1.243l-.5.866c-.69 1.196-2.219 1.605-3.415.915-.087-.05-.161-.114-.239-.172-.002.866.436 1.708 1.239 2.172 1.196.69 2.725.281 3.415-.915l.5-.866c.639-1.109.325-2.496-.676-3.243z"
                          fill="#cff09e"
                        ></path>
                      </g>
                      <g>
                        <path
                          d="m38.79 38.594 9.906 5.719 9.304-1.313-4-15-9.586 2.739c-2.885.824-5.943.824-8.828 0-1.614-.461-3.353-.081-4.628 1.011l-2.049 1.756c-1.921 1.647-4.143 2.905-6.544 3.705-1.214.405-1.741 1.829-1.083 2.926.954 1.59 3.005 2.126 4.615 1.206l4.103-2.343.832.333c2.617 1.047 5.578.772 7.958-.739z"
                          fill="#fff"
                        ></path>
                        <path
                          d="m54 28-4.2 1.2.218.874c1.109 4.436-2.867 8.474-7.319 7.434l-2.396-.56c-.923-.216-1.876-.076-2.747.299-2.123.914-4.543.959-6.724.087-1.16-.211-2.353.108-3.254.868l-.674.569c-.972.555-2.101.82-3.212.681-1.275-.16-2.045-.696-2.419-1.339-.347.602-.384 1.371.01 2.027.954 1.59 3.005 2.126 4.615 1.206l4.102-2.346.832.333c2.617 1.047 5.578.772 7.959-.739l9.906 5.719 9.303-1.313z"
                          fill="#cff09e"
                        ></path>
                        <path d="m61 23-10 3 5 20 5-1z" fill="#a8dba8"></path>
                      </g>
                    </g>
                    <g>
                      <path
                        d="m36 18-9 5-9-5v-10l9-5 9 5z"
                        fill="#a8dba8"
                      ></path>
                      <circle cx="28" cy="8" fill="#cff09e" r="2"></circle>
                      <g fill="#79bd9a">
                        <path d="m26 19 5-6 5 5-9 5z"></path>
                        <path d="m23 11-5 7 9 5 4.533-2.518z"></path>
                      </g>
                    </g>
                    <g>
                      <circle cx="40" cy="19" fill="#fff" r="7"></circle>
                      <path
                        d="m43 22c-3.866 0-7-3.134-7-7 0-.666.099-1.308.273-1.918-1.964 1.24-3.273 3.424-3.273 5.918 0 3.866 3.134 7 7 7 3.2 0 5.893-2.15 6.727-5.082-1.08.682-2.355 1.082-3.727 1.082z"
                        fill="#cff09e"
                      ></path>
                    </g>
                  </g>
                </g>
                <g id="Stroke_Close_copy">
                  <g fill="#3b8686">
                    <path
                      d="m60.804 44.02-4.064.812-4.538-18.148 9.086-2.726c.529-.159.829-.717.671-1.245-.158-.529-.715-.828-1.245-.671l-10 3c-.512.153-.812.683-.683 1.2l.432 1.729-6.323 1.807c-2.709.775-5.571.774-8.278.001-1.947-.56-4.021-.104-5.554 1.213l-1.081.926-2.407-1.389c-1.117-.645-2.422-.833-3.675-.529l-1.611.39c-1.561.376-3.198.335-4.737-.121l-3.103-.919.276-1.106c.129-.518-.171-1.047-.683-1.2l-10-3c-.527-.154-1.086.142-1.245.671-.159.528.142 1.086.671 1.245l9.085 2.726-4.537 18.146-4.065-.812c-.546-.114-1.069.242-1.177.784s.243 1.068.784 1.177l5 1c.067.013.133.019.198.019.45 0 .856-.305.969-.758l.365-1.459 4.328 1.706-.939 1.626c-.964 1.672-.39 3.816 1.281 4.781.54.312 1.138.471 1.745.471.116 0 .232-.011.349-.023.04 1.168.652 2.292 1.737 2.919.54.312 1.138.471 1.745.471.304 0 .61-.04.911-.121.264-.071.511-.178.746-.304.291.644.771 1.209 1.428 1.589.54.312 1.138.471 1.745.471.304 0 .61-.04.911-.121.264-.071.51-.178.745-.304.299.663.787 1.218 1.429 1.589.55.317 1.15.468 1.744.468 1.21 0 2.39-.628 3.038-1.749l.5-.866c.002-.003.003-.007.005-.01l2.004 1.158c.55.317 1.15.468 1.744.468 1.21 0 2.39-.628 3.037-1.749.369-.64.524-1.363.454-2.084 1.166-.042 2.287-.664 2.912-1.746.369-.64.524-1.363.454-2.084 1.166-.041 2.287-.664 2.912-1.747.296-.513.454-1.08.469-1.656 1.452.304 2.987-.328 3.764-1.674.59-1.021.599-2.216.14-3.214l3.922-.554.438 1.751c.11.45.516.755.966.755.065 0 .131-.006.197-.02l5-1c.541-.108.893-.635.784-1.177-.108-.54-.63-.895-1.176-.783zm-43.75 8.595c-.2.348-.523.596-.911.699-.387.104-.791.05-1.138-.15-.716-.413-.962-1.333-.549-2.049l1.5-2.598c.278-.48.783-.75 1.302-.75.254 0 .512.065.747.201.347.2.595.523.699.911.104.386.051.79-.149 1.137zm3.732-2.464c.278-.48.783-.75 1.302-.75.254 0 .512.065.747.201.347.2.595.523.699.911.104.387.051.791-.15 1.138l-2.5 4.33c-.2.348-.523.596-.911.699-.387.103-.791.051-1.138-.15-.716-.413-.962-1.333-.549-2.049zm3.83 3.367c.278-.48.783-.75 1.302-.75.254 0 .512.065.747.201.347.2.595.523.699.911.104.387.051.791-.15 1.138l-1.5 2.598c-.2.348-.523.596-.911.699-.388.104-.792.05-1.138-.15-.716-.413-.962-1.333-.549-2.049zm6.428 4.866-.5.866c-.415.715-1.334.962-2.049.549-.347-.2-.595-.523-.699-.911-.104-.387-.051-.791.15-1.138l.5-.866c.2-.348.523-.596.911-.699.129-.034.26-.052.39-.052.26 0 .517.068.748.202.716.413.963 1.333.549 2.049zm9.612-6.01c.345.199.591.521.694.907.104.387.05.791-.15 1.139-.413.716-1.333.962-2.049.549l-7.361-4.25c-.479-.276-1.09-.113-1.366.366s-.112 1.09.366 1.366l6.498 3.752c.346.199.593.522.696.908.104.387.05.791-.15 1.139-.413.716-1.333.961-2.049.549l-2.562-1.479c-.101-1.095-.707-2.127-1.728-2.717-.642-.371-1.366-.517-2.09-.444-.009-.266-.039-.533-.109-.796-.242-.903-.821-1.658-1.631-2.126-.657-.379-1.387-.512-2.09-.442-.009-.267-.039-.534-.109-.798-.242-.903-.821-1.658-1.631-2.126-1.086-.626-2.367-.594-3.4-.042-.299-.664-.788-1.221-1.43-1.592-1.392-.804-3.105-.526-4.2.553l-4.981-1.963 3.384-13.535 3.02.895c1.876.556 3.873.606 5.775.146l1.611-.39c.75-.182 1.534-.069 2.205.318l1.759 1.015c-1.666 1.3-3.514 2.315-5.529 2.987-.868.289-1.548.947-1.865 1.806-.317.857-.229 1.8.241 2.584 1.224 2.042 3.901 2.74 5.969 1.56l3.683-2.104.384.154c2.714 1.085 5.786.89 8.335-.51l9.4 5.428c.018.01.039.014.057.024l-.003.005c.716.413.963 1.333.549 2.049-.413.717-1.333.963-2.049.55l-1.729-.998c-.001-.001-.002-.002-.003-.003l-8.228-4.75c-.478-.276-1.09-.112-1.366.366s-.112 1.09.366 1.366l8.224 4.748.003.003.003.001c.345.2.593.523.696.909.104.387.05.791-.15 1.138-.413.717-1.333.963-2.049.55l-8.228-4.75c-.478-.276-1.09-.111-1.366.366-.276.479-.112 1.09.366 1.366zm8.241-9.099-9.607-5.548c-.323-.185-.723-.178-1.036.021-2.104 1.336-4.738 1.58-7.051.655l-.832-.333c-.283-.112-.603-.092-.868.061l-4.103 2.344c-1.13.645-2.592.263-3.261-.853-.157-.262-.186-.575-.08-.861.105-.285.332-.505.622-.602 2.536-.846 4.85-2.156 6.878-3.895l2.049-1.757c1.023-.876 2.407-1.179 3.703-.808 3.066.875 6.311.875 9.377 0l6.259-1.788 3.157 12.627z"
                    ></path>
                    <path
                      d="m17.514 18.874 9 5c.152.084.319.126.486.126s.334-.042.486-.126l4.827-2.682c.956 3.348 4.037 5.808 7.687 5.808 4.411 0 8-3.589 8-8s-3.589-8-8-8c-1.061 0-2.073.212-3 .589v-3.589c0-.363-.197-.698-.515-.874l-9-5c-.303-.168-.669-.168-.972 0l-9 5c-.316.176-.513.511-.513.874v10c0 .363.197.698.514.874zm9.486 2.982-7.535-4.187 3.625-5.075 6.86 7.622zm5-2.856c0 .026.004.05.004.076l-.26.145-2.402-2.669 1.725-2.071 1.521 1.521c-.376.927-.588 1.938-.588 2.998zm14 0c0 3.309-2.691 6-6 6s-6-2.691-6-6 2.691-6 6-6 6 2.691 6 6zm-19-14.856 1.711.951c-.229-.057-.465-.095-.711-.095-1.654 0-3 1.346-3 3s1.346 3 3 3 3-1.346 3-3c0-.831-.34-1.583-.888-2.127l4.888 2.716v4.176c-.52.418-.983.902-1.385 1.436l-1.908-1.908c-.199-.199-.475-.306-.752-.292-.281.013-.543.143-.723.358l-2.242 2.69-4.247-4.719c-.202-.225-.493-.34-.799-.329-.303.017-.582.17-.758.417l-3.186 4.461v-6.29zm2 3.856c0 .552-.449 1-1 1s-1-.448-1-1 .449-1 1-1 1 .448 1 1z"
                    ></path>
                    <path
                      d="m38.293 21.707c.195.195.451.293.707.293s.512-.098.707-.293l4-4c.391-.391.391-1.023 0-1.414s-1.023-.391-1.414 0l-3.293 3.293-1.293-1.293c-.391-.391-1.023-.391-1.414 0s-.391 1.023 0 1.414z"
                    ></path>
                  </g>
                </g>
              </svg>