 <svg
                xmlns="http://www.w3.org/2000/svg"
                height="100px"
                viewBox="0 -4 488 487"
                width="100px"
              >
                <path
                  d="m144 392.492188h-128c-4.417969 0-8 3.582031-8 8v64c0 4.417968 3.582031 8 8 8h41.472656c-.949218-2.5625-1.445312-5.269532-1.472656-8-.101562-9.617188 5.546875-18.363282 14.351562-22.226563 8.808594-3.863281 19.070313-2.101563 26.078126 4.480469 7.007812 6.585937 9.410156 16.714844 6.105468 25.746094h65.464844c4.417969 0 8-3.582032 8-8v-40c0-17.671876-14.328125-32-32-32zm0 0"
                  fill="#cff09e"
                ></path>
                <path
                  d="m319.710938 336.90625-59.039063 78.714844c-2.992187 3.988281-7.6875 6.335937-12.671875 6.335937s-9.679688-2.347656-12.671875-6.335937l-59.328125-79.128906h-56c-32.234375.023437-59.417969 24.019531-63.449219 56h87.449219c17.671875 0 32 14.328124 32 32v40c0 4.417968-3.582031 8-8 8h272v-8c-.046875-67.648438-52.761719-123.558594-120.289062-127.585938zm0 0"
                  fill="#a8dba8"
                ></path>
                <path
                  d="m264 440.492188c-53.019531 0-96-42.980469-96-96v-8h-48c-32.234375.023437-59.417969 24.019531-63.449219 56h87.449219c17.671875 0 32 14.328124 32 32v40c0 4.417968-3.582031 8-8 8h272v-32zm0 0"
                  fill="#79bd9a"
                ></path>
                <path
                  d="m386.257812 112.492188c-17.804687-61.574219-74.164062-103.964844-138.257812-104-64.09375.039062-120.445312 42.429687-138.246094 104l-5.753906 112v114.128906h73.601562l-1.601562-2.128906h15.953125c2.128906.011718 4.175781-.824219 5.6875-2.328126 1.511719-1.5 2.359375-3.542968 2.359375-5.671874v-45.488282c-29.832031-18.246094-48.019531-50.703125-48-85.671875v-84.839843c0-4.417969 3.582031-8 8-8h99.0625c3.023438 0 5.789062-1.707032 7.144531-4.410157l6.65625-13.300781c1.363281-2.695312 4.121094-4.394531 7.140625-4.394531 3.019532 0 5.777344 1.699219 7.140625 4.394531l6.648438 13.300781c1.355469 2.703125 4.121093 4.410157 7.144531 4.410157h35.0625c4.417969 0 8 3.582031 8 8v88c0 34.375-18.402344 66.117187-48.230469 83.199218.070313-.046875.160157-.078125.230469-.121094v44.921876c.027344 4.425781 3.621094 8 8.046875 8h15.953125l-1.601562 2.105468h73.601562v-114.105468zm-51.3125-36.6875c-4.328124 7.503906-16.96875 8.320312-28.226562 1.816406-11.253906-6.503906-16.863281-17.847656-12.535156-25.34375s16.96875-8.320313 28.222656-1.824219c11.257812 6.496094 16.875 17.871094 12.539062 25.375zm0 0"
                  fill="#a8dba8"
                ></path>
                <path
                  d="m296 307.546875v-24c-29.671875 17.257813-66.328125 17.257813-96 0v23.535156c13.945312 8.476563 29.890625 13.105469 46.207031 13.410157 17.46875.328124 34.695313-4.148438 49.792969-12.945313zm0 0"
                  fill="#cff09e"
                ></path>
                <path
                  d="m336 104.492188h-35.0625c-3.023438 0-5.789062-1.707032-7.144531-4.410157l-6.648438-13.300781c-1.363281-2.695312-4.121093-4.394531-7.140625-4.394531-3.019531 0-5.777344 1.699219-7.140625 4.394531l-6.65625 13.300781c-1.355469 2.703125-4.121093 4.410157-7.144531 4.410157h-99.0625c-4.417969 0-8 3.582031-8 8v24c0-4.417969 3.582031-8 8-8h99.0625c3.023438 0 5.789062-1.707032 7.144531-4.410157l6.65625-13.300781c1.363281-2.695312 4.121094-4.394531 7.140625-4.394531 3.019532 0 5.777344 1.699219 7.140625 4.394531l6.648438 13.300781c1.355469 2.703125 4.121093 4.410157 7.144531 4.410157h35.0625c4.417969 0 8 3.582031 8 8v-24c0-4.417969-3.582031-8-8-8zm0 0"
                  fill="#cff09e"
                ></path>
                <path
                  d="m184 197.332031v-84.839843c0-4.417969 3.582031-8 8-8h-32c-4.417969 0-8 3.582031-8 8v84.800781c-.648438 53.125 41.121094 97.105469 94.207031 99.199219 6.058594.09375 12.113281-.382813 18.082031-1.425782-46.851562-8.917968-80.636718-50.042968-80.289062-97.734375zm0 0"
                  fill="#cff09e"
                ></path>
                <path
                  d="m200 276.355469c-30.085938-20.90625-48.019531-55.226563-48-91.863281v-88c-.003906-24.65625 8.171875-48.613282 23.246094-68.121094-31.765625 18.65625-55.195313 48.75-65.492188 84.121094l-5.753906 112v114.128906h96zm0 0"
                  fill="#79bd9a"
                ></path>
                <path
                  d="m104 112.492188h8c4.417969 0 8 3.582031 8 8v96c0 4.417968-3.582031 8-8 8h-8c-17.671875 0-32-14.328126-32-32v-48c0-17.671876 14.328125-32 32-32zm0 0"
                  fill="#a8dba8"
                ></path>
                <path
                  d="m384 112.492188h8c17.671875 0 32 14.328124 32 32v48c0 17.671874-14.328125 32-32 32h-8c-4.417969 0-8-3.582032-8-8v-96c0-4.417969 3.582031-8 8-8zm0 0"
                  fill="#a8dba8"
                ></path>
                <path
                  d="m168 296.515625c0 8.835937-7.164062 16-16 16s-16-7.164063-16-16 7.164062-16 16-16 16 7.164063 16 16zm0 0"
                  fill="#a8dba8"
                ></path>
                <path
                  d="m88 160.492188v-43.535157c-9.863281 5.664063-15.960938 16.160157-16 27.535157v48c0 17.671874 14.328125 32 32 32h8c4.417969 0 8-3.582032 8-8v-10.761719c-19.171875-6.777344-31.992188-24.902344-32-45.238281zm0 0"
                  fill="#79bd9a"
                ></path>
                <path
                  d="m392 160.492188v-48h-8c-4.417969 0-8 3.582031-8 8v96c0 4.417968 3.582031 8 8 8h8c12.917969 0 24.566406-7.765626 29.535156-19.6875-17.886718-7.453126-29.539062-24.933594-29.535156-44.3125zm0 0"
                  fill="#79bd9a"
                ></path>
                <path
                  d="m69.824219 442.890625c-20.363281-9.148437-34.488281-28.246094-37.273438-50.398437h-16.550781c-4.417969 0-8 3.582031-8 8v64c0 4.417968 3.582031 8 8 8h41.472656c-.949218-2.5625-1.445312-5.269532-1.472656-8 .039062-9.269532 5.421875-17.683594 13.824219-21.601563zm0 0"
                  fill="#a8dba8"
                ></path>
                <path
                  d="m97.777344 448.492188c6.003906 6.449218 7.859375 15.734374 4.796875 24h65.425781c4.417969 0 8-3.582032 8-8v-16zm0 0"
                  fill="#a8dba8"
                ></path>
                <path
                  d="m328 440.492188h48c4.417969 0 8 3.582031 8 8v24h-64v-24c0-4.417969 3.582031-8 8-8zm0 0"
                  fill="#a8dba8"
                ></path>
                <g fill="#3b8686">
                  <path
                    d="m280 216.492188c-4.417969 0-8 3.582031-8 8 0 13.253906-10.746094 24-24 24s-24-10.746094-24-24c0-4.417969-3.582031-8-8-8s-8 3.582031-8 8c0 22.089843 17.910156 40 40 40s40-17.910157 40-40c0-4.417969-3.582031-8-8-8zm0 0"
                  ></path>
                  <path
                    d="m312 168.492188c0-13.253907-10.746094-24-24-24s-24 10.746093-24 24c0 4.417968 3.582031 8 8 8s8-3.582032 8-8c0-4.417969 3.582031-8 8-8s8 3.582031 8 8c0 4.417968 3.582031 8 8 8s8-3.582032 8-8zm0 0"
                  ></path>
                  <path
                    d="m216 168.492188c0 4.417968 3.582031 8 8 8s8-3.582032 8-8c0-13.253907-10.746094-24-24-24s-24 10.746093-24 24c0 4.417968 3.582031 8 8 8s8-3.582032 8-8c0-4.417969 3.582031-8 8-8s8 3.582031 8 8zm0 0"
                  ></path>
                  <path
                    d="m480 464.492188h-32v-64c-.054688-30.476563-19.273438-57.625-48-67.800782v-101c18.613281-3.820312 31.980469-20.195312 32-39.199218v-48c-.03125-22.078126-17.921875-39.96875-40-40-20.566406-62.082032-78.601562-103.992188-144-103.992188s-123.433594 41.910156-144 103.992188c-22.078125.03125-39.96875 17.921874-40 40v48c.019531 19 13.386719 35.375 32 39.199218v101.023438c-23.214844 8.242187-40.617188 27.769531-46.136719 51.777344h-33.863281c-8.835938 0-16 7.164062-16 16v64c0 8.835937 7.164062 16 16 16h464c4.417969 0 8-3.582032 8-8 0-4.417969-3.582031-8-8-8zm-64-320v48c0 13.253906-10.746094 24-24 24h-8v-96h8c13.253906 0 24 10.746093 24 24zm-336 48v-48c0-13.253907 10.746094-24 24-24h8v96h-8c-13.253906 0-24-10.746094-24-24zm32 54.910156c4.625 13.234375 11.140625 25.726562 19.34375 37.089844-2.164062 3.628906-3.320312 7.773437-3.34375 12 0 13.253906 10.746094 24 24 24s24-10.746094 24-24c0-13.253907-10.746094-24-24-24-2.890625.015624-5.753906.558593-8.449219 1.601562-9.820312-13.859375-16.777343-29.535156-20.472656-46.113281 3.136719-3 4.914063-7.148438 4.921875-11.488281v-96c-.027344-5.648438-3.03125-10.863282-7.902344-13.71875 19.238282-54.125 70.460938-90.28125 127.902344-90.28125s108.664062 36.15625 127.902344 90.28125c-4.871094 2.855468-7.875 8.070312-7.902344 13.71875v96c0 8.835937 7.164062 16 16 16v96.496093c-2.65625-.3125-5.328125-.476562-8-.496093h-72v-40.351563c6.066406-3.878906 11.71875-8.371094 16.863281-13.410156 19.996094-19.511719 31.230469-46.296875 31.136719-74.238281v-88c0-8.835938-7.164062-16-16-16h-35.046875l-6.65625-13.304688c-2.71875-5.402344-8.25-8.816406-14.296875-8.816406s-11.578125 3.414062-14.296875 8.816406l-6.640625 13.304688h-99.0625c-8.835938 0-16 7.164062-16 16v84.800781c-.03125 36.140625 17.972656 69.914062 48 90.03125l-.046875 41.167969h-71.953125c-2.675781.015624-5.34375.179687-8 .496093zm34.34375 43.488281.070312-.085937c3.167969-3.105469 8.246094-3.066407 11.367188.082031 3.117188 3.152343 3.105469 8.230469-.027344 11.367187-3.136718 3.132813-8.214844 3.144532-11.367187.027344-3.148438-3.121094-3.1875-8.199219-.082031-11.367188zm157.65625 53.601563-49.726562 66.3125c-1.535157 1.886718-3.839844 2.984374-6.273438 2.984374s-4.738281-1.097656-6.273438-2.984374l-49.726562-66.3125c8.824219-.027344 15.972656-7.175782 16-16v-32.359376c12.011719 5.261719 24.945312 8.101563 38.054688 8.359376h1.945312c13.730469.019531 27.324219-2.6875 40-7.960938v31.960938c.03125 8.824218 7.175781 15.96875 16 16zm-57.648438-56c-48.707031-2.019532-86.972656-42.414063-86.351562-91.160157v-84.839843h99.0625c6.054688.03125 11.597656-3.382813 14.296875-8.800782l6.640625-13.3125 6.640625 13.3125c2.699219 5.417969 8.242187 8.828125 14.296875 8.800782h35.0625v88c.003906 23.628906-9.492188 46.265624-26.355469 62.816406-16.859375 16.550781-39.667969 25.625-63.292969 25.183594zm-182.351562 176c0-8.835938 7.164062-16 16-16s16 7.164062 16 16zm16-32c-17.671875 0-32 14.328124-32 32h-32v-64h128c13.253906 0 24 10.746093 24 24v40h-56c0-17.671876-14.328125-32-32-32zm248 32v-16h48v16zm48-32h-48c-8.835938 0-16 7.164062-16 16v16h-128v-40c-.027344-22.082032-17.917969-39.972657-40-40h-77.601562c7.070312-23.710938 28.859374-39.972657 53.601562-40h52l56.929688 75.902343c4.5 6.007813 11.566406 9.542969 19.070312 9.542969s14.570312-3.535156 19.070312-9.542969l56.929688-75.902343h52c30.914062.035156 55.964844 25.085937 56 56v64h-40v-16c0-8.835938-7.164062-16-16-16zm0 0"
                  ></path>
                </g>
              </svg>